<?xml version="1.0"?>
<svg xmlns="http://www.w3.org/2000/svg" viewBox="0 0 50 50">
    <path style="text-indent:0;text-align:start;line-height:normal;text-transform:none;block-progression:tb;-inkscape-font-specification:Bitstream Vera Sans" d="M 26.875 3 A 1.0001 1.0001 0 0 0 26.8125 3.03125 L 11.8125 6.03125 A 1.0001 1.0001 0 0 0 11 7 L 11 43 A 1.0001 1.0001 0 0 0 11.8125 43.96875 L 26.8125 46.96875 A 1.0001 1.0001 0 0 0 28 46 L 28 4 A 1.0001 1.0001 0 0 0 26.875 3 z M 26 5.21875 L 26 44.78125 L 13 42.1875 L 13 7.8125 L 26 5.21875 z M 29 6 L 29 8 L 37 8 L 37 42 L 29 42 L 29 44 L 38 44 A 1.0001 1.0001 0 0 0 39 43 L 39 7 A 1.0001 1.0001 0 0 0 38 6 L 29 6 z M 3.34375 13.59375 C 1.8653462 16.776308 1 20.708939 1 25 C 1 29.291061 1.8653462 33.223692 3.34375 36.40625 L 5.15625 35.59375 C 3.8186538 32.714308 3 29.018939 3 25 C 3 20.981061 3.8186538 17.285692 5.15625 14.40625 L 3.34375 13.59375 z M 46.65625 13.59375 L 44.84375 14.40625 C 46.181346 17.285692 47 20.981061 47 25 C 47 29.018939 46.181346 32.714308 44.84375 35.59375 L 46.65625 36.40625 C 48.134654 33.223692 49 29.291061 49 25 C 49 20.708939 48.134654 16.776308 46.65625 13.59375 z M 6.875 15.09375 C 5.685176 17.857689 5 21.28506 5 25 C 5 28.71494 5.685176 32.142311 6.875 34.90625 L 8.71875 34.09375 C 7.654574 31.621689 7 28.46306 7 25 C 7 21.53694 7.654574 18.378311 8.71875 15.90625 L 6.875 15.09375 z M 43.125 15.09375 L 41.28125 15.90625 C 42.345426 18.378311 43 21.53694 43 25 C 43 28.46306 42.345426 31.621689 41.28125 34.09375 L 43.125 34.90625 C 44.314824 32.142311 45 28.71494 45 25 C 45 21.28506 44.314824 17.857689 43.125 15.09375 z M 22.90625 24.96875 A 1.0001 1.0001 0 0 0 22.78125 25 A 1.0001 1.0001 0 0 0 22 26 L 22 30 A 1.0001 1.0001 0 1 0 24 30 L 24 26 A 1.0001 1.0001 0 0 0 22.90625 24.96875 z" overflow="visible" font-family="Bitstream Vera Sans"/>
</svg>
